#!OML:ASF H:\Not Pregnant\Project 1\Capture day 1\Session 1\non-pregnant.ASF
:FULLY-SPECIFIED
:DEGREES
447
root -4.89561 16.2308 34.6594 -179.764 -80.3566 -170.652
lowerback -3.93415 1.53837 0.080936
upperback -7.69671 1.78263 0.249642
thorax -5.78277 0.770321 0.205428
lowerneck 8.5151 -6.3363 -31.607
upperneck -6.41796 -12.5913 42.0906
head 2.41238 -8.0139 22.6872
rclavicle 7.90169e-015 1.19271e-015
rhumerus -46.7972 -3.5092 -80.9888
rradius 37.0098
rwrist 10.1522
rhand -13.6855 -1.85826
rfingers 7.12502
rthumb 12.4323 -31.4685
lclavicle 7.90169e-015 1.19271e-015
lhumerus -47.098 0.516267 87.6821
lradius 36.6076
lwrist 49.6032
lhand -11.7804 -11.9296
lfingers 7.12502
lthumb 14.2686 17.5602
rfemur -15.4837 -9.30125 20.926
rtibia 17.6282
rfoot -16.2487 18.2037
rtoes -8.92302
lfemur -13.8973 1.11568 -17.6356
ltibia 14.0668
lfoot -10.2265 2.30426
ltoes -20.9702
448
root -4.90433 16.2309 34.6623 -179.466 -80.2967 -170.945
lowerback -4.02261 1.55981 0.0687198
upperback -7.70078 1.80904 0.244392
thorax -5.73722 0.783427 0.208697
lowerneck 8.61888 -6.33338 -31.6332
upperneck -6.45933 -12.6187 42.1223
head 2.3989 -8.04084 22.7253
rclavicle 3.32467e-014 1.12313e-014
rhumerus -46.6394 -3.63331 -80.8769
rradius 36.873
rwrist 10.36
rhand -13.6306 -1.78791
rfingers 7.12502
rthumb 12.4853 -31.395
lclavicle 3.32467e-014 1.12313e-014
lhumerus -47.1868 0.724732 87.6787
lradius 36.4604
lwrist 49.5074
lhand -11.5558 -11.9532
lfingers 7.12502
lthumb 14.485 17.5212
rfemur -15.4746 -9.2926 20.864
rtibia 17.6387
rfoot -16.295 18.2305
rtoes -8.98763
lfemur -13.8271 1.20513 -17.706
ltibia 13.9938
lfoot -10.2271 2.27247
ltoes -21.0114
449
root -4.91309 16.231 34.6651 -179.199 -80.2375 -171.206
lowerback -4.11511 1.58198 0.0561352
upperback -7.70375 1.83666 0.244384
thorax -5.68846 0.797333 0.217781
lowerneck 8.72044 -6.3304 -31.6639
upperneck -6.49935 -12.6455 42.1519
head 2.38616 -8.06691 22.7631
rclavicle -1.66358e-014 1.09332e-015
rhumerus -46.4803 -3.79457 -80.747
rradius 36.7123
rwrist 10.5476
rhand -13.6147 -1.75498
rfingers 7.12502
rthumb 12.5006 -31.3611
lclavicle -1.66358e-014 1.09332e-015
lhumerus -47.282 0.915421 87.6877
lradius 36.3369
lwrist 49.4466
lhand -11.2957 -11.9799
lfingers 7.12502
lthumb 14.7356 17.4763
rfemur -15.4665 -9.26744 20.8056
rtibia 17.6501
rfoot -16.3386 18.2402
rtoes -9.04828
lfemur -13.7596 1.28517 -17.7704
ltibia 13.9224
lfoot -10.226 2.2532
ltoes -21.0671
450
root -4.92188 16.2311 34.668 -178.947 -80.1831 -171.454
lowerback -4.20821 1.60259 0.0455616
upperback -7.70489 1.86233 0.245387
thorax -5.63739 0.810236 0.226914
lowerneck 8.82047 -6.32729 -31.698
upperneck -6.5399 -12.6718 42.1808
head 2.37368 -8.09242 22.8015
rclavicle -2.05494e-014 -9.83984e-015
rhumerus -46.3211 -3.97906 -80.6153
rradius 36.5305
rwrist 10.7126
rhand -13.6229 -1.75762
rfingers 7.12502
rthumb 12.4927 -31.3642
lclavicle -2.05494e-014 -9.83984e-015
lhumerus -47.3829 1.08165 87.7076
lradius 36.2378
lwrist 49.4177
lhand -11.0116 -12.0031
lfingers 7.12502
lthumb 15.0093 17.4329
rfemur -15.4572 -9.24237 20.748
rtibia 17.664
rfoot -16.3843 18.2457
rtoes -9.10391
lfemur -13.6908 1.35479 -17.8323
ltibia 13.8497
lfoot -10.2252 2.23693
ltoes -21.0952
451
root -4.93072 16.2312 34.6707 -178.709 -80.1305 -171.689
lowerback -4.30052 1.62544 0.0431851
upperback -7.7048 1.89081 0.23955
thorax -5.58499 0.823903 0.224423
lowerneck 8.92307 -6.32491 -31.7216
upperneck -6.58219 -12.6985 42.2098
head 2.35936 -8.11856 22.8368
rclavicle -1.12935e-014 -3.18055e-015
rhumerus -46.1612 -4.18912 -80.4939
rradius 36.3228
rwrist 10.8517
rhand -13.6772 -1.80593
rfingers 7.12502
rthumb 12.4403 -31.4157
lclavicle -1.12935e-014 -3.18055e-015
lhumerus -47.4888 1.20774 87.7325
lradius 36.1611
lwrist 49.4496
lhand -10.6972 -12.043
lfingers 7.12502
lthumb 15.3122 17.3702
rfemur -15.4439 -9.19872 20.6886
rtibia 17.6791
rfoot -16.4229 18.236
rtoes -9.12721
lfemur -13.6186 1.41967 -17.8912
ltibia 13.7756
lfoot -10.224 2.22215
ltoes -21.106
452
root -4.93976 16.2312 34.6735 -178.457 -80.0792 -171.946
lowerback -4.39035 1.64906 0.0424026
upperback -7.70095 1.92043 0.229274
thorax -5.5298 0.838044 0.216489
lowerneck 9.02364 -6.32165 -31.7407
upperneck -6.62303 -12.7234 42.2403
head 2.34481 -8.14387 22.8723
rclavicle -2.31584e-014 -7.15625e-015
rhumerus -46.0017 -4.41557 -80.378
rradius 36.0952
rwrist 10.9727
rhand -13.7486 -1.88095
rfingers 7.12502
rthumb 12.3715 -31.4949
lclavicle -2.31584e-014 -7.15625e-015
lhumerus -47.5974 1.30084 87.7653
lradius 36.1084
lwrist 49.4644
lhand -10.3805 -12.0463
lfingers 7.12502
lthumb 15.6172 17.3433
rfemur -15.4229 -9.15163 20.622
rtibia 17.6969
rfoot -16.4639 18.2227
rtoes -9.14288
lfemur -13.5368 1.47532 -17.9541
ltibia 13.6993
lfoot -10.2226 2.21118
ltoes -21.0978
453
root -4.94889 16.231 34.6764 -178.209 -80.0311 -172.203
lowerback -4.47672 1.6725 0.0446863
upperback -7.69598 1.9498 0.215505
thorax -5.47517 0.851837 0.203225
lowerneck 9.12554 -6.31706 -31.7562
upperneck -6.66148 -12.7473 42.2724
head 2.33001 -8.16911 22.9087
rclavicle -8.29926e-015 -4.67144e-015
rhumerus -45.8458 -4.64933 -80.2714
rradius 35.8502
rwrist 11.0809
rhand -13.8355 -1.98216
rfingers 7.12502
rthumb 12.2877 -31.6011
lclavicle -8.29926e-015 -4.67144e-015
lhumerus -47.7118 1.3603 87.8056
lradius 36.0787
lwrist 49.5244
lhand -10.0583 -12.0555
lfingers 7.12502
lthumb 15.9275 17.3096
rfemur -15.3981 -9.10304 20.5531
rtibia 17.7201
rfoot -16.5042 18.2077
rtoes -9.13668
lfemur -13.4466 1.52655 -18.0172
ltibia 13.6175
lfoot -10.2198 2.19814
ltoes -21.061
